<mxfile modified="2022-05-03T01:43:09.950Z" host="app.diagrams.net" agent="5.0 (Windows NT 10.0; Win64; x64) AppleWebKit/537.36 (KHTML, like Gecko) Chrome/100.0.4896.127 Safari/537.36 Edg/100.0.1185.50" etag="l0iVlc3ZqE0qCHa6CbUA" compressed="false" version="17.5.0" type="google">
  <diagram name="Security/Messages/Secure" id="Ldb1Wit45hCL1_-x1Lub">
    <mxGraphModel grid="1" page="1" gridSize="10" guides="1" tooltips="1" connect="1" arrows="1" fold="1" pageScale="1" pageWidth="850" pageHeight="1100" math="0" shadow="0">
      <root>
        <mxCell id="8dozgvt3aGhB_E197CKs-0" />
        <mxCell id="8dozgvt3aGhB_E197CKs-1" value="Diagram" parent="8dozgvt3aGhB_E197CKs-0" />
        <mxCell id="8dozgvt3aGhB_E197CKs-68" value="Insecure Network &amp;amp; Devices (MTAs, Proxies, Firewalls, etc.)" style="rounded=1;whiteSpace=wrap;html=1;strokeColor=#666666;strokeWidth=1;fillColor=#f5f5f5;fontFamily=Helvetica;fontSize=12;fontColor=#333333;align=center;dashed=1;labelPosition=center;verticalLabelPosition=middle;verticalAlign=top;fontStyle=2;absoluteArcSize=1;" vertex="1" parent="8dozgvt3aGhB_E197CKs-1">
          <mxGeometry x="240" y="300" width="110" height="180" as="geometry" />
        </mxCell>
        <mxCell id="8dozgvt3aGhB_E197CKs-40" style="edgeStyle=elbowEdgeStyle;rounded=0;orthogonalLoop=1;jettySize=auto;html=1;endArrow=classic;endFill=1;strokeWidth=3;fontFamily=Helvetica;fontSize=12;entryX=0.025;entryY=0.739;entryDx=0;entryDy=0;entryPerimeter=0;fillColor=#ffe6cc;strokeColor=#FF8000;exitX=1;exitY=0.75;exitDx=0;exitDy=0;" edge="1" parent="8dozgvt3aGhB_E197CKs-1" source="8dozgvt3aGhB_E197CKs-16" target="8dozgvt3aGhB_E197CKs-18">
          <mxGeometry relative="1" as="geometry">
            <mxPoint x="300" y="440" as="targetPoint" />
          </mxGeometry>
        </mxCell>
        <mxCell id="8dozgvt3aGhB_E197CKs-16" value="System" style="rounded=0;whiteSpace=wrap;html=1;strokeColor=#82b366;strokeWidth=1;fillColor=#d5e8d4;fontFamily=Helvetica;fontSize=12;align=center;" vertex="1" parent="8dozgvt3aGhB_E197CKs-1">
          <mxGeometry x="160" y="250" width="80" height="40" as="geometry" />
        </mxCell>
        <mxCell id="8dozgvt3aGhB_E197CKs-41" style="edgeStyle=elbowEdgeStyle;rounded=0;orthogonalLoop=1;jettySize=auto;html=1;entryX=0;entryY=0.5;entryDx=0;entryDy=0;endArrow=classic;endFill=1;strokeWidth=3;fontFamily=Helvetica;fontSize=12;fillColor=#ffe6cc;strokeColor=#FF8000;" edge="1" parent="8dozgvt3aGhB_E197CKs-1" source="8dozgvt3aGhB_E197CKs-18" target="8dozgvt3aGhB_E197CKs-25">
          <mxGeometry relative="1" as="geometry" />
        </mxCell>
        <mxCell id="8dozgvt3aGhB_E197CKs-18" value="" style="html=1;verticalLabelPosition=bottom;align=center;labelBackgroundColor=#ffffff;verticalAlign=top;strokeWidth=2;shadow=0;dashed=0;shape=mxgraph.ios7.icons.envelope_(message);rounded=0;fillColor=none;fontFamily=Helvetica;fontSize=12;fontColor=#000000;strokeColor=#0080F0;" vertex="1" parent="8dozgvt3aGhB_E197CKs-1">
          <mxGeometry x="280" y="390" width="30" height="30" as="geometry" />
        </mxCell>
        <mxCell id="8dozgvt3aGhB_E197CKs-46" style="rounded=0;orthogonalLoop=1;jettySize=auto;html=1;endArrow=classic;endFill=1;strokeWidth=3;fontFamily=Helvetica;fontSize=12;entryX=0.525;entryY=-0.079;entryDx=0;entryDy=0;entryPerimeter=0;exitX=0.5;exitY=1;exitDx=0;exitDy=0;fillColor=#ffe6cc;strokeColor=#FF8000;" edge="1" parent="8dozgvt3aGhB_E197CKs-1" source="8dozgvt3aGhB_E197CKs-25" target="8dozgvt3aGhB_E197CKs-45">
          <mxGeometry relative="1" as="geometry">
            <mxPoint x="390" y="530" as="targetPoint" />
            <mxPoint x="400" y="500" as="sourcePoint" />
          </mxGeometry>
        </mxCell>
        <mxCell id="8dozgvt3aGhB_E197CKs-25" value="Recipient" style="rounded=0;whiteSpace=wrap;html=1;strokeColor=#d79b00;strokeWidth=1;fillColor=#ffe6cc;fontFamily=Helvetica;fontSize=12;align=center;" vertex="1" parent="8dozgvt3aGhB_E197CKs-1">
          <mxGeometry x="360" y="430" width="80" height="40" as="geometry" />
        </mxCell>
        <mxCell id="8dozgvt3aGhB_E197CKs-42" value="" style="html=1;verticalLabelPosition=bottom;align=center;labelBackgroundColor=#ffffff;verticalAlign=top;strokeWidth=2;shadow=0;dashed=0;shape=mxgraph.ios7.icons.envelope_(message);rounded=0;fillColor=none;fontFamily=Helvetica;fontSize=12;fontColor=#000000;strokeColor=#FF0000;" vertex="1" parent="8dozgvt3aGhB_E197CKs-1">
          <mxGeometry x="280" y="200" width="30" height="30" as="geometry" />
        </mxCell>
        <mxCell id="8dozgvt3aGhB_E197CKs-43" style="edgeStyle=elbowEdgeStyle;rounded=0;orthogonalLoop=1;jettySize=auto;html=1;endArrow=cross;endFill=0;strokeWidth=3;fontFamily=Helvetica;fontSize=12;spacing=1;entryX=-0.097;entryY=0.679;entryDx=0;entryDy=0;entryPerimeter=0;exitX=1;exitY=0.25;exitDx=0;exitDy=0;strokeColor=#FF0000;" edge="1" parent="8dozgvt3aGhB_E197CKs-1" source="8dozgvt3aGhB_E197CKs-16" target="8dozgvt3aGhB_E197CKs-42">
          <mxGeometry relative="1" as="geometry">
            <mxPoint x="302.0999999999999" y="337.6400000000001" as="targetPoint" />
            <mxPoint x="250" y="310" as="sourcePoint" />
          </mxGeometry>
        </mxCell>
        <mxCell id="8dozgvt3aGhB_E197CKs-48" style="edgeStyle=elbowEdgeStyle;rounded=0;orthogonalLoop=1;jettySize=auto;html=1;entryX=0.87;entryY=0.5;entryDx=0;entryDy=0;entryPerimeter=0;endArrow=classic;endFill=1;strokeWidth=3;fontFamily=Helvetica;fontSize=12;strokeColor=#FF8000;" edge="1" parent="8dozgvt3aGhB_E197CKs-1">
          <mxGeometry relative="1" as="geometry">
            <mxPoint x="380" y="565" as="sourcePoint" />
            <mxPoint x="209.25" y="565" as="targetPoint" />
          </mxGeometry>
        </mxCell>
        <mxCell id="8dozgvt3aGhB_E197CKs-45" value="Recipient clicks emailed link&lt;br&gt;back into system" style="html=1;verticalLabelPosition=bottom;align=center;labelBackgroundColor=#ffffff;verticalAlign=top;strokeWidth=2;strokeColor=#0080F0;shadow=0;dashed=0;shape=mxgraph.ios7.icons.link;rounded=0;fillColor=none;fontFamily=Helvetica;fontSize=12;" vertex="1" parent="8dozgvt3aGhB_E197CKs-1">
          <mxGeometry x="385" y="550" width="30" height="30" as="geometry" />
        </mxCell>
        <mxCell id="8dozgvt3aGhB_E197CKs-47" value="Sign In / Sign Up" style="verticalLabelPosition=middle;html=1;verticalAlign=middle;align=right;strokeColor=none;shape=mxgraph.azure.multi_factor_authentication;pointerEvents=1;rounded=0;fontFamily=Helvetica;fontSize=12;fillColor=#0080F0;labelPosition=left;" vertex="1" parent="8dozgvt3aGhB_E197CKs-1">
          <mxGeometry x="187.5" y="480" width="25" height="30" as="geometry" />
        </mxCell>
        <mxCell id="8dozgvt3aGhB_E197CKs-51" style="rounded=0;orthogonalLoop=1;jettySize=auto;html=1;entryX=0.5;entryY=0.985;entryDx=0;entryDy=0;endArrow=classic;endFill=1;strokeWidth=3;fontFamily=Helvetica;fontSize=12;exitX=0.364;exitY=0.043;exitDx=0;exitDy=0;exitPerimeter=0;strokeColor=#00CC00;entryPerimeter=0;" edge="1" parent="8dozgvt3aGhB_E197CKs-1" source="8dozgvt3aGhB_E197CKs-50" target="8dozgvt3aGhB_E197CKs-47">
          <mxGeometry relative="1" as="geometry" />
        </mxCell>
        <mxCell id="8dozgvt3aGhB_E197CKs-50" value="Logged" style="aspect=fixed;html=1;points=[];align=right;image;fontSize=12;image=img/lib/mscae/Log.svg;rounded=0;strokeColor=#0080F0;fillColor=#0080F0;labelPosition=left;verticalLabelPosition=middle;verticalAlign=middle;" vertex="1" parent="8dozgvt3aGhB_E197CKs-1">
          <mxGeometry x="190" y="550" width="27" height="30" as="geometry" />
        </mxCell>
        <mxCell id="8dozgvt3aGhB_E197CKs-57" value="Validate" style="shape=image;html=1;verticalAlign=top;verticalLabelPosition=bottom;labelBackgroundColor=#ffffff;imageAspect=0;aspect=fixed;image=https://cdn1.iconfinder.com/data/icons/material-core/18/search-128.png;rounded=0;strokeColor=#0080F0;fillColor=#0080F0;fontFamily=Helvetica;fontSize=12;align=right;labelPosition=left;" vertex="1" parent="8dozgvt3aGhB_E197CKs-1">
          <mxGeometry x="190" y="400" width="20" height="20" as="geometry" />
        </mxCell>
        <mxCell id="8dozgvt3aGhB_E197CKs-62" style="rounded=0;orthogonalLoop=1;jettySize=auto;html=1;entryX=0.5;entryY=1;entryDx=0;entryDy=0;endArrow=classic;endFill=1;strokeWidth=3;fontFamily=Helvetica;fontSize=12;strokeColor=#00CC00;" edge="1" parent="8dozgvt3aGhB_E197CKs-1" target="8dozgvt3aGhB_E197CKs-67">
          <mxGeometry relative="1" as="geometry">
            <mxPoint x="200" y="400" as="sourcePoint" />
            <mxPoint x="200" y="350" as="targetPoint" />
          </mxGeometry>
        </mxCell>
        <mxCell id="8dozgvt3aGhB_E197CKs-63" style="edgeStyle=elbowEdgeStyle;rounded=0;orthogonalLoop=1;jettySize=auto;html=1;endArrow=cross;endFill=0;strokeWidth=3;fontFamily=Helvetica;fontSize=12;spacing=1;exitX=0;exitY=0.5;exitDx=0;exitDy=0;strokeColor=#FF0000;" edge="1" parent="8dozgvt3aGhB_E197CKs-1" source="8dozgvt3aGhB_E197CKs-57">
          <mxGeometry relative="1" as="geometry">
            <mxPoint x="160" y="410" as="targetPoint" />
            <mxPoint x="250" y="330" as="sourcePoint" />
          </mxGeometry>
        </mxCell>
        <mxCell id="8dozgvt3aGhB_E197CKs-64" value="" style="verticalLabelPosition=bottom;verticalAlign=top;html=1;shape=mxgraph.basic.x;rounded=0;fontFamily=Helvetica;fontSize=12;align=center;fillColor=none;dashed=1;" vertex="1" parent="8dozgvt3aGhB_E197CKs-1">
          <mxGeometry x="270" y="190" width="50" height="60" as="geometry" />
        </mxCell>
        <mxCell id="8dozgvt3aGhB_E197CKs-65" value="" style="shape=image;html=1;verticalAlign=top;verticalLabelPosition=bottom;labelBackgroundColor=#ffffff;imageAspect=0;aspect=fixed;image=https://cdn1.iconfinder.com/data/icons/essentials-pack/96/block_banned_stop_disabled_ban-128.png;rounded=0;strokeColor=#000000;fillColor=none;fontFamily=Helvetica;fontSize=12;align=center;imageBackground=#FF0000;" vertex="1" parent="8dozgvt3aGhB_E197CKs-1">
          <mxGeometry x="137" y="398" width="24" height="24" as="geometry" />
        </mxCell>
        <mxCell id="8dozgvt3aGhB_E197CKs-66" style="edgeStyle=none;rounded=0;orthogonalLoop=1;jettySize=auto;html=1;endArrow=classic;endFill=1;strokeWidth=3;fontFamily=Helvetica;fontSize=12;strokeColor=#FF8000;" edge="1" parent="8dozgvt3aGhB_E197CKs-1" source="8dozgvt3aGhB_E197CKs-47" target="8dozgvt3aGhB_E197CKs-57">
          <mxGeometry relative="1" as="geometry" />
        </mxCell>
        <mxCell id="8dozgvt3aGhB_E197CKs-67" value="View or&lt;br&gt;Report" style="shape=image;html=1;verticalAlign=top;verticalLabelPosition=bottom;labelBackgroundColor=#ffffff;imageAspect=0;aspect=fixed;image=https://cdn4.iconfinder.com/data/icons/essential-3/32/329-Document_Report-128.png;rounded=0;strokeColor=#000000;fillColor=none;fontFamily=Helvetica;fontSize=12;align=right;labelPosition=left;" vertex="1" parent="8dozgvt3aGhB_E197CKs-1">
          <mxGeometry x="181" y="280" width="38" height="38" as="geometry" />
        </mxCell>
        <mxCell id="8dozgvt3aGhB_E197CKs-33" value="Title/Diagram" style="" parent="8dozgvt3aGhB_E197CKs-0" />
        <mxCell id="8dozgvt3aGhB_E197CKs-34" value="&lt;font style=&quot;font-size: 12px&quot;&gt;&lt;span style=&quot;font-size: 12px&quot;&gt;Diagram: Base System Logical Module -&amp;nbsp;&lt;/span&gt;Security - Confidentiality - In Transit - External Notification Content&lt;/font&gt;" style="text;strokeColor=none;fillColor=none;html=1;fontSize=24;fontStyle=2;verticalAlign=middle;align=left;shadow=0;glass=0;comic=0;opacity=30;fontColor=#808080;" vertex="1" parent="8dozgvt3aGhB_E197CKs-33">
          <mxGeometry x="120" y="620" width="520" height="20" as="geometry" />
        </mxCell>
        <mxCell id="8dozgvt3aGhB_E197CKs-35" value="Title/Page" visible="0" parent="8dozgvt3aGhB_E197CKs-0" />
        <mxCell id="8dozgvt3aGhB_E197CKs-36" value="&lt;font style=&quot;font-size: 12px&quot;&gt;&lt;span style=&quot;font-size: 12px&quot;&gt;Base Logical Module -&amp;nbsp;&lt;/span&gt;System Context - Roles, Obligations, Permissions&lt;/font&gt;" style="text;strokeColor=none;fillColor=none;html=1;fontSize=12;fontStyle=1;verticalAlign=middle;align=left;shadow=0;glass=0;comic=0;opacity=30;fontColor=#808080;" vertex="1" parent="8dozgvt3aGhB_E197CKs-35">
          <mxGeometry x="130" y="150" width="560" height="20" as="geometry" />
        </mxCell>
        <mxCell id="8dozgvt3aGhB_E197CKs-37" value="" style="line;strokeWidth=2;html=1;shadow=0;glass=0;comic=0;fillColor=none;fontSize=10;fontColor=#CCCCCC;labelBackgroundColor=none;strokeColor=#CCCCCC;" vertex="1" parent="8dozgvt3aGhB_E197CKs-35">
          <mxGeometry x="130" y="165" width="560" height="10" as="geometry" />
        </mxCell>
        <mxCell id="8dozgvt3aGhB_E197CKs-38" value="About" parent="8dozgvt3aGhB_E197CKs-0" />
        <mxCell id="8dozgvt3aGhB_E197CKs-71" value="Notes" parent="8dozgvt3aGhB_E197CKs-0" />
        <mxCell id="8dozgvt3aGhB_E197CKs-26" value="&lt;i&gt;System does &lt;b&gt;NOT&lt;/b&gt; send out confidential (system or private)&amp;nbsp;&lt;/i&gt;&lt;i&gt;information via interceptable SMTP messages over insecure networks.&lt;/i&gt;&lt;i&gt;&lt;br&gt;&amp;nbsp;&lt;/i&gt;" style="text;html=1;strokeColor=none;fillColor=none;align=left;verticalAlign=middle;whiteSpace=wrap;rounded=0;fontFamily=Helvetica;fontSize=12;fontColor=#000000;" vertex="1" parent="8dozgvt3aGhB_E197CKs-71">
          <mxGeometry x="460" y="240" width="260" height="80" as="geometry" />
        </mxCell>
        <mxCell id="8dozgvt3aGhB_E197CKs-44" value="&lt;i&gt;Instead, it sends out notifications that only contain instructions and a link back to either a dynamic View or a pre-prepared Report.&amp;nbsp;&lt;br&gt;&lt;br&gt;Reports are developed with Instructions to treat any confidential information available in the report in accordance with applicable privacy regulation.&lt;br&gt;&lt;/i&gt;" style="text;html=1;strokeColor=none;fillColor=none;align=left;verticalAlign=middle;whiteSpace=wrap;rounded=0;fontFamily=Helvetica;fontSize=12;fontColor=#000000;" vertex="1" parent="8dozgvt3aGhB_E197CKs-71">
          <mxGeometry x="460" y="340" width="260" height="120" as="geometry" />
        </mxCell>
        <mxCell id="8dozgvt3aGhB_E197CKs-72" value="&lt;i&gt;Note:&lt;br&gt;Depending on use case, pre-prepared Reports (as opossed to Views) MAY be on externally accessible, cloud provider validated, blob storage relying on cloud provider issued tokens.&amp;nbsp;&lt;/i&gt;" style="text;html=1;strokeColor=none;fillColor=none;align=left;verticalAlign=middle;whiteSpace=wrap;rounded=0;fontFamily=Helvetica;fontSize=12;fontColor=#000000;" vertex="1" parent="8dozgvt3aGhB_E197CKs-71">
          <mxGeometry x="460" y="490" width="260" height="80" as="geometry" />
        </mxCell>
      </root>
    </mxGraphModel>
  </diagram>
</mxfile>
